<svg width="98" height="96" viewBox="0 0 98 96" fill="none" xmlns="http://www.w3.org/2000/svg">
<path fill-rule="evenodd" clip-rule="evenodd" d="M46.7963 0.192611C48.2639 -0.0642184 49.7652 -0.064189 51.2328 0.192611L57.1879 1.2346C63.6173 2.35997 68.1857 8.12114 67.8168 14.6379L67.224 25.1086L75.8607 21.0657C82.0934 18.148 89.519 20.6504 92.7142 26.7453L95.1596 31.4094C95.8343 32.6964 96.2857 34.0887 96.4955 35.5266L97.3676 41.5012C98.3108 47.9667 94.2587 54.1131 87.9447 55.7942L77.0853 58.6848L84.5932 68.0891C88.5383 73.0316 88.3072 80.1085 84.0482 84.7834L79.9613 89.2688C78.7914 90.553 77.3737 91.5873 75.7934 92.3088L70.2572 94.8362C64.3745 97.5219 57.4121 95.4249 53.9916 89.9368L48.7689 81.5578L43.7035 89.7815C40.2785 95.3405 33.2327 97.4536 27.3139 94.6965L22.1 92.2678C20.608 91.5728 19.2628 90.5975 18.1381 89.3957L13.8773 84.843C9.49107 80.1563 9.22937 72.9537 13.2641 67.9612L19.9779 59.6526L9.50331 56.8137C3.20042 55.1055 -0.823586 48.9468 0.142963 42.4885L1.04628 36.4524C1.25691 35.0452 1.69941 33.6825 2.35585 32.4202L5.03847 27.261C8.112 21.351 15.1881 18.764 21.349 21.2971L31.0228 25.2746L30.3275 14.7395C29.8945 8.18032 34.4745 2.34919 40.9496 1.21605L46.7963 0.192611ZM41.7318 61.1545C41.2975 60.8393 40.6901 60.9354 40.3744 61.3694L36.9447 66.0901C36.629 66.5246 36.7251 67.1328 37.1596 67.4485C37.594 67.7641 38.2023 67.668 38.518 67.2336L41.9477 62.5129C42.2632 62.0784 42.1663 61.4702 41.7318 61.1545ZM58.9398 61.3694C58.6242 60.9351 58.0159 60.8391 57.5814 61.1545C57.147 61.4701 57.0502 62.0784 57.3656 62.5129L60.7953 67.2336C61.111 67.6681 61.7192 67.764 62.1537 67.4485C62.5882 67.1328 62.6851 66.5246 62.3695 66.0901L58.9398 61.3694ZM49.015 38.217C42.5702 38.217 37.3452 43.4411 37.3451 49.886C37.3451 56.3308 42.5702 61.5559 49.015 61.5559C55.4598 61.5558 60.684 56.3308 60.684 49.886C60.6839 43.4412 55.4598 38.2171 49.015 38.217ZM30.1195 42.4065C29.6087 42.2405 29.0599 42.5207 28.8939 43.0315C28.7281 43.5422 29.0072 44.0911 29.518 44.2571L35.0668 46.0598C35.5774 46.2257 36.1262 45.9463 36.2924 45.4358C36.4583 44.9251 36.179 44.3762 35.6684 44.2102L30.1195 42.4065ZM69.3559 43.0315C69.1899 42.5207 68.6411 42.2405 68.1303 42.4065L62.5814 44.2102C62.0707 44.3762 61.7915 44.925 61.9574 45.4358C62.1235 45.9461 62.6715 46.2254 63.182 46.0598L68.7318 44.2571C69.2425 44.0911 69.5217 43.5422 69.3559 43.0315ZM49.015 28.4924C48.4781 28.4924 48.0426 28.9272 48.0424 29.4641V35.2991C48.0424 35.8361 48.478 36.2717 49.015 36.2717C49.552 36.2716 49.9877 35.836 49.9877 35.2991V29.4641C49.9875 28.9273 49.5519 28.4926 49.015 28.4924Z" fill="#F9A8D4"/>
</svg>
