<svg width="20" height="20" viewBox="0 0 20 20" fill="none" xmlns="http://www.w3.org/2000/svg">
<path d="M17.9611 3.33334C17.8854 3.32553 17.809 3.32553 17.7333 3.33334H2.17775C2.07805 3.33487 1.97901 3.34982 1.8833 3.37778L9.91108 11.3722L17.9611 3.33334Z" fill="#1E3A8A"/>
<path d="M18.7834 4.10556L10.6945 12.1611C10.4863 12.3681 10.2047 12.4842 9.91115 12.4842C9.61761 12.4842 9.336 12.3681 9.12782 12.1611L1.11115 4.16667C1.08651 4.25725 1.07344 4.35059 1.07227 4.44445V15.5556C1.07227 15.8502 1.18933 16.1329 1.3977 16.3412C1.60608 16.5496 1.88869 16.6667 2.18338 16.6667H17.7389C18.0336 16.6667 18.3162 16.5496 18.5246 16.3412C18.733 16.1329 18.85 15.8502 18.85 15.5556V4.44445C18.8456 4.3287 18.8231 4.21436 18.7834 4.10556ZM2.94449 15.5556H2.17227V14.7611L6.21115 10.7556L6.99449 11.5389L2.94449 15.5556ZM17.7278 15.5556H16.95L12.9 11.5389L13.6834 10.7556L17.7223 14.7611L17.7278 15.5556Z" fill="#1E3A8A"/>
</svg>
