<svg width="20" height="20" viewBox="0 0 20 20" fill="none" xmlns="http://www.w3.org/2000/svg">
<path d="M9.99984 9.58332C9.4473 9.58332 8.9174 9.36383 8.5267 8.97313C8.136 8.58243 7.9165 8.05252 7.9165 7.49999C7.9165 6.94746 8.136 6.41755 8.5267 6.02685C8.9174 5.63615 9.4473 5.41666 9.99984 5.41666C10.5524 5.41666 11.0823 5.63615 11.473 6.02685C11.8637 6.41755 12.0832 6.94746 12.0832 7.49999C12.0832 7.77358 12.0293 8.04449 11.9246 8.29725C11.8199 8.55001 11.6664 8.77967 11.473 8.97313C11.2795 9.16658 11.0499 9.32004 10.7971 9.42474C10.5443 9.52944 10.2734 9.58332 9.99984 9.58332ZM9.99984 1.66666C8.45274 1.66666 6.96901 2.28124 5.87505 3.3752C4.78109 4.46916 4.1665 5.95289 4.1665 7.49999C4.1665 11.875 9.99984 18.3333 9.99984 18.3333C9.99984 18.3333 15.8332 11.875 15.8332 7.49999C15.8332 5.95289 15.2186 4.46916 14.1246 3.3752C13.0307 2.28124 11.5469 1.66666 9.99984 1.66666Z" fill="#1E3A8A"/>
</svg>
