<svg width="20" height="20" viewBox="0 0 20 20" fill="none" xmlns="http://www.w3.org/2000/svg">
<path fill-rule="evenodd" clip-rule="evenodd" d="M9.99984 1.66666C5.39734 1.66666 1.6665 5.39749 1.6665 9.99999C1.6665 11.575 2.104 13.05 2.86484 14.3067L2.1215 16.8333C2.07882 16.9784 2.07602 17.1323 2.11337 17.2788C2.15073 17.4253 2.22688 17.5591 2.3338 17.666C2.44073 17.773 2.57449 17.8491 2.72102 17.8865C2.86755 17.9238 3.02144 17.921 3.1665 17.8783L5.69317 17.135C6.99212 17.9208 8.4817 18.3353 9.99984 18.3333C14.6023 18.3333 18.3332 14.6025 18.3332 9.99999C18.3332 5.39749 14.6023 1.66666 9.99984 1.66666ZM8.11484 11.8858C9.80067 13.5708 11.4098 13.7933 11.9782 13.8142C12.8423 13.8458 13.684 13.1858 14.0115 12.42C14.0525 12.3246 14.0673 12.2201 14.0544 12.1171C14.0415 12.0141 14.0014 11.9165 13.9382 11.8342C13.4815 11.2508 12.864 10.8317 12.2607 10.415C12.1348 10.3277 11.9799 10.2926 11.8287 10.3172C11.6775 10.3417 11.5416 10.424 11.4498 10.5467L10.9498 11.3092C10.9234 11.35 10.8825 11.3793 10.8353 11.391C10.7881 11.4028 10.7382 11.3962 10.6957 11.3725C10.3565 11.1783 9.86234 10.8483 9.50734 10.4933C9.15234 10.1383 8.84234 9.66666 8.66817 9.34916C8.6471 9.3087 8.64115 9.26206 8.65138 9.21761C8.66162 9.17317 8.68737 9.13382 8.724 9.10666L9.494 8.53499C9.60421 8.43965 9.67536 8.307 9.69381 8.16245C9.71226 8.0179 9.67672 7.87162 9.594 7.75166C9.22067 7.20499 8.78567 6.50999 8.15484 6.04916C8.07325 5.99054 7.97791 5.95398 7.87805 5.94303C7.77818 5.93208 7.67719 5.94711 7.58484 5.98666C6.81817 6.31499 6.15484 7.15666 6.1865 8.02249C6.20734 8.59082 6.42984 10.2 8.11484 11.8858Z" fill="#1E3A8A"/>
</svg>
