<svg width="20" height="20" viewBox="0 0 20 20" fill="none" xmlns="http://www.w3.org/2000/svg">
<path d="M8.33317 12.5L12.6582 9.99999L8.33317 7.49999V12.5ZM17.9665 5.97499C18.0748 6.36666 18.1498 6.89166 18.1998 7.55832C18.2582 8.22499 18.2832 8.79999 18.2832 9.29999L18.3332 9.99999C18.3332 11.825 18.1998 13.1667 17.9665 14.025C17.7582 14.775 17.2748 15.2583 16.5248 15.4667C16.1332 15.575 15.4165 15.65 14.3165 15.7C13.2332 15.7583 12.2415 15.7833 11.3248 15.7833L9.99984 15.8333C6.50817 15.8333 4.33317 15.7 3.47484 15.4667C2.72484 15.2583 2.2415 14.775 2.03317 14.025C1.92484 13.6333 1.84984 13.1083 1.79984 12.4417C1.7415 11.775 1.7165 11.2 1.7165 10.7L1.6665 9.99999C1.6665 8.17499 1.79984 6.83332 2.03317 5.97499C2.2415 5.22499 2.72484 4.74166 3.47484 4.53332C3.8665 4.42499 4.58317 4.34999 5.68317 4.29999C6.7665 4.24166 7.75817 4.21666 8.67484 4.21666L9.99984 4.16666C13.4915 4.16666 15.6665 4.29999 16.5248 4.53332C17.2748 4.74166 17.7582 5.22499 17.9665 5.97499Z" fill="#1E3A8A"/>
</svg>
